# xmcd CD database file
#
# Track frame offsets:
#	150
#	15903
#	29395
#	43013
#	56171
#	67097
#	85227
#	96835
#	111404
#	125033
#	141191
#
# Disc length: 1977 seconds
#
# Revision: 0
# Processed by: cddbd v1.5.2PL0 Copyright (c) Steve Scherf et al.
# Submitted via: CDex 1.51
#
DISCID=9c07b70b
DTITLE=Katel - Elégie
DYEAR=2016
DGENRE=Jazz
TTITLE0=Voûtes
TTITLE1=Cyclones
TTITLE2=A l'Aphélie
TTITLE3=Au Large
TTITLE4=Danse Sur Le Lac De Constance
TTITLE5=Hors-Foule
TTITLE6=Ralentis
TTITLE7=Saisons
TTITLE8=Echos
TTITLE9=De l'Ombre
TTITLE10=Elégie
EXTD=YEAR: 2016
EXTT0=
EXTT1=
EXTT2=
EXTT3=
EXTT4=
EXTT5=
EXTT6=
EXTT7=
EXTT8=
EXTT9=
EXTT10=
PLAYORDER=
